<?xml version="1.0" encoding="UTF-8"?>
<svg id="Bold_Selected" xmlns="http://www.w3.org/2000/svg" viewBox="0 0 250.88 250.88">
  <defs>
    <style>
      .cls-1 {
        fill: #0c2534;
      }

      .cls-2 {
        fill: #f2fafe;
      }
    </style>
  </defs>
  <g>
    <rect class="cls-2" x="10" y="10" width="230.88" height="230.88" rx="25.91" ry="25.91"/>
    <path class="cls-1" d="M214.97,20c8.77,0,15.91,7.14,15.91,15.91v179.05c0,8.77-7.14,15.91-15.91,15.91H35.91c-8.77,0-15.91-7.14-15.91-15.91V35.91c0-8.77,7.14-15.91,15.91-15.91h179.05M214.97,0H35.91C16.08,0,0,16.08,0,35.91v179.05C0,234.8,16.08,250.88,35.91,250.88h179.05c19.83,0,35.91-16.08,35.91-35.91V35.91C250.88,16.08,234.8,0,214.97,0h0Z"/>
  </g>
  <path class="cls-2" d="M76.2,183.34v-115.69c-3.33,0-6.45.1-9.56-.02-5.97-.24-10.28-4.57-10.17-10.06.1-5.26,4.35-9.61,10.09-9.63,30.48-.08,60.97-.41,91.44.15,17.65.32,33.04,15.66,36.35,34.28,2.97,16.71-1.4,31.16-13.37,43.52,8.08,8.09,12.37,17.73,13.97,28.72,3.23,22.1-11.16,43.9-31.83,47.96-1.78.35-3.63.54-5.45.54-30.31.03-60.63.04-90.94,0-6.8,0-11.3-4.1-11.26-9.98.04-5.84,4.53-9.68,11.48-9.77,2.96-.04,5.92,0,9.25,0ZM97.53,115.6c21.06,0,41.53.03,61.99-.07,1.53,0,3.32-.61,4.55-1.52,5.5-4.07,9.36-9.27,10.83-16.14,3.77-17.63-6.26-30.22-24.22-30.22-15.98,0-31.96,0-47.94,0h-5.21v47.95ZM97.5,183.27c1.96,0,3.43,0,4.9,0,17.63.02,35.26-.09,52.89.13,6.89.09,11.97-2.91,15.57-8.22,5.98-8.85,5.98-18.27,1.56-27.86-4.19-9.09-12.03-10.98-21-10.95-16.13.05-32.27.01-48.4.01h-5.51v46.89Z"/>
  <path class="cls-1" d="M76.2,183.34v-115.69c-3.33,0-6.45.1-9.56-.02-5.97-.24-10.28-4.57-10.17-10.06.1-5.26,4.35-9.61,10.09-9.63,30.48-.08,60.97-.41,91.44.15,17.65.32,33.04,15.66,36.35,34.28,2.97,16.71-1.4,31.16-13.37,43.52,8.08,8.09,12.37,17.73,13.97,28.72,3.23,22.1-11.16,43.9-31.83,47.96-1.78.35-3.63.54-5.45.54-30.31.03-60.63.04-90.94,0-6.8,0-11.3-4.1-11.26-9.98.04-5.84,4.53-9.68,11.48-9.77,2.96-.04,5.92,0,9.25,0ZM97.53,115.6c21.06,0,41.53.03,61.99-.07,1.53,0,3.32-.61,4.55-1.52,5.5-4.07,9.36-9.27,10.83-16.14,3.77-17.63-6.26-30.22-24.22-30.22-15.98,0-31.96,0-47.94,0h-5.21v47.95ZM97.5,183.27c1.96,0,3.43,0,4.9,0,17.63.02,35.26-.09,52.89.13,6.89.09,11.97-2.91,15.57-8.22,5.98-8.85,5.98-18.27,1.56-27.86-4.19-9.09-12.03-10.98-21-10.95-16.13.05-32.27.01-48.4.01h-5.51v46.89Z"/>
</svg>