<?xml version="1.0" encoding="UTF-8"?>
<svg id="Color_Selected" xmlns="http://www.w3.org/2000/svg" viewBox="0 0 250.88 252.12">
  <defs>
    <style>
      .cls-1 {
        fill: #0c2534;
      }

      .cls-2 {
        fill: #f2fafe;
      }
    </style>
  </defs>
  <g>
    <rect class="cls-2" x="10" y="11.24" width="230.88" height="230.88" rx="25.91" ry="25.91"/>
    <path class="cls-1" d="M214.97,21.24c8.77,0,15.91,7.14,15.91,15.91v179.05c0,8.77-7.14,15.91-15.91,15.91H35.91c-8.77,0-15.91-7.14-15.91-15.91V37.15c0-8.77,7.14-15.91,15.91-15.91h179.05M214.97,1.24H35.91C16.08,1.24,0,17.32,0,37.15v179.05C0,236.04,16.08,252.12,35.91,252.12h179.05c19.83,0,35.91-16.08,35.91-35.91V37.15c0-19.83-16.08-35.91-35.91-35.91h0Z"/>
  </g>
  <g>
    <path class="cls-1" d="M210.05,127.32c5.39,4.87,11.03,9.49,16.13,14.66,7.9,8.01,8.03,18.67.8,27.35-4.85,5.83-11.67,7.74-19.27,4.19-6.41-3-12.59-6.73-18.32-10.9-8.45-6.13-16.42-12.93-24.59-19.45-1.4-1.12-2.79-2.26-5-4.06-2.27,4.62-4.7,8.55-6.14,12.81-1.44,4.26.26,7.76,4.61,9.7,3.78,1.69,7.53,3.46,11.25,5.29,2.23,1.1,4.45,2.25,6.52,3.62,9.87,6.53,11.72,16.83,3.43,25.33-4.84,4.97-11.14,8.94-17.43,12.02C88.01,244.12,31.17,175.28,33.2,125.27c1.75-43.27,37.99-83.78,81.07-89.26,41.92-5.32,85.83,21.74,97.58,60.14,3.97,12.98,3.48,21.51-1.8,31.17ZM149.77,130.04c-3.07-2.75-5.65-5.37-8.56-7.54-1.44-1.07-3.48-1.84-5.26-1.86-8.43-.08-15.41-3.43-20.09-10.14-8.83-12.65-12.28-27.4-14.68-42.34-.79-4.94,3.55-8.91,8.38-8.02,14.07,2.59,27.81,6.34,40.12,13.98,6.45,4,9.82,10.01,11.02,17.51.31,1.93,1.72,4.22,3.33,5.31,9.61,6.5,19.39,12.75,29.2,18.95,1.4.89,3.24,1.09,4.88,1.6.5-1.69,1.38-3.36,1.44-5.06.38-9.68-3.26-18.18-8.39-26.07-21.07-32.38-72.25-56-117.45-14.59-25.59,23.45-33.22,57.22-18.46,85.86,18.57,36.02,54.82,60.51,103.54,35.56,4.06-2.08,7.57-5.23,12.24-8.52-3.67-2.06-5.77-3.36-7.96-4.45-3.86-1.92-7.8-3.66-11.66-5.57-9.38-4.62-13.58-12.11-12.75-22.6.69-8.77,4.94-15.64,11.12-21.99ZM214.54,161.01c3.74-5.9,4.15-6.96-.54-10.4-18.68-13.65-37.65-26.93-56.64-40.14-.94-.65-3.15.53-4.77.86,19.81,18.62,38.48,36.98,61.96,49.68ZM119.19,76.87c-.52.51-1.04,1.03-1.56,1.54,2.86,7.16,5.45,14.44,8.68,21.43,1.71,3.71,5,6.28,9.54,5.83,3.81-.37,8.95-5.86,9.82-10.26.91-4.59-1.26-7.95-5.13-9.73-6.99-3.21-14.22-5.9-21.35-8.81Z"/>
    <path class="cls-1" d="M81.77,143.47c-12.5-.13-22.72-10.56-22.58-23.06.14-12.5,10.56-22.69,23.08-22.56,12.51.13,22.7,10.54,22.57,23.06-.13,12.52-10.53,22.69-23.07,22.56ZM90.03,120.56c-.05-4.3-3.56-7.81-7.87-7.89-4.48-.08-8.22,3.63-8.15,8.11.06,4.29,3.59,7.83,7.87,7.9,4.49.08,8.21-3.62,8.15-8.12Z"/>
    <path class="cls-1" d="M108.69,145.64c11.46-.12,21,9.27,21.05,20.73.05,11.47-9.38,20.94-20.85,20.93-11.27-.01-20.61-9.21-20.8-20.48-.19-11.47,9.14-21.06,20.6-21.18ZM114.99,166.53c-.43-3.62-2.31-5.97-6.03-5.98-3.69-.01-5.96,2.2-5.98,5.89-.03,3.68,2.2,5.93,5.89,5.98,3.73.05,5.63-2.28,6.12-5.89Z"/>
  </g>
</svg>