<?xml version="1.0" encoding="UTF-8"?>
<svg id="Heading_Selected" xmlns="http://www.w3.org/2000/svg" viewBox="0 0 250.88 252.12">
  <defs>
    <style>
      .cls-1 {
        fill: #0c2534;
      }

      .cls-2 {
        fill: #f2fafe;
      }
    </style>
  </defs>
  <g>
    <path class="cls-2" d="M35.91,11.24h179.05c14.3,0,25.91,11.61,25.91,25.91v179.05c0,14.3-11.61,25.91-25.91,25.91H35.91c-14.3,0-25.91-11.61-25.91-25.91V37.15c0-14.3,11.61-25.91,25.91-25.91Z"/>
    <path class="cls-1" d="M214.97,21.24c8.77,0,15.91,7.14,15.91,15.91v179.05c0,8.77-7.14,15.91-15.91,15.91H35.91c-8.77,0-15.91-7.14-15.91-15.91V37.15c0-8.77,7.14-15.91,15.91-15.91h179.05M214.97,1.24H35.91C16.08,1.24,0,17.32,0,37.15v179.05C0,236.04,16.08,252.12,35.91,252.12h179.05c19.83,0,35.91-16.08,35.91-35.91V37.15c0-19.83-16.08-35.91-35.91-35.91h0Z"/>
  </g>
  <g>
    <path class="cls-1" d="M161.16,79.37c-16.08,0-32.17.03-48.25,0-7.68-.02-11.73-3.88-11.69-10.98.04-6.87,4.07-10.75,11.4-10.76,32.5-.03,65-.04,97.5,0,8.88.01,13.83,6.98,10.82,15.1-1.79,4.84-5.56,6.66-10.53,6.65-16.42-.04-32.83-.01-49.25-.01Z"/>
    <path class="cls-1" d="M61.31,78.38c-9.51,0-17.95.02-26.39,0-6.34-.02-9.38-2.72-9.39-8.27-.02-5.55,2.99-8.37,9.31-8.44,8.59-.09,17.17-.02,27.37-.02-2.33-2.67-3.68-4.16-4.97-5.71-3.16-3.78-2.87-7.86.79-11.45,3.73-3.66,7.69-3.92,11.36-.23,6.54,6.59,12.94,13.34,19.24,20.16,3.54,3.83,3.28,7.55-.48,11.38-5.8,5.91-11.65,11.78-17.47,17.67-4.62,4.67-8.39,5.03-12.43,1.21-4.32-4.09-4.27-8.02.15-12.9.75-.83,1.46-1.7,2.92-3.39Z"/>
    <path class="cls-1" d="M161.37,116.22c-13.27,0-26.53.03-39.8-.01-6.37-.02-9.35-2.71-9.4-8.27-.05-5.65,2.92-8.48,9.19-8.49,26.7-.03,53.4-.03,80.1,0,6.24,0,9.22,2.88,9.16,8.52-.06,5.56-3.05,8.22-9.44,8.24-13.27.04-26.53.01-39.8.01Z"/>
    <path class="cls-1" d="M195.03,151.08c-5.63,0-11.26.04-16.89-.01-5.97-.05-9.25-2.95-9.19-7.98.06-4.86,3.25-7.74,8.91-7.77,11.59-.07,23.18-.06,34.77,0,5.68.03,8.85,2.87,8.93,7.74.08,5.05-3.19,7.97-9.15,8.02-5.79.05-11.59.01-17.38.01Z"/>
    <path class="cls-1" d="M125.3,152.08c-5.8,0-11.59.06-17.39-.02-5.53-.08-8.74-3.1-8.68-7.99.06-4.71,3.16-7.71,8.41-7.75,11.92-.09,23.84-.09,35.77,0,5.27.04,8.36,3.03,8.43,7.74.08,4.89-3.13,7.93-8.66,8-5.96.08-11.92.02-17.88.02Z"/>
    <path class="cls-1" d="M195.03,180.96c-5.8,0-11.59.07-17.39-.02-5.57-.08-8.74-3.08-8.69-7.98.06-4.86,3.25-7.74,8.9-7.77,11.59-.06,23.18-.06,34.77,0,5.67.03,8.85,2.88,8.93,7.74.08,5.06-3.18,7.97-9.15,8.02-5.8.05-11.59.01-17.39.01Z"/>
    <path class="cls-1" d="M125.24,181.95c-5.8,0-11.59.07-17.39-.02-5.52-.09-8.71-3.15-8.61-8.05.09-4.7,3.19-7.65,8.47-7.69,11.92-.08,23.84-.09,35.77,0,5.23.04,8.33,3.08,8.37,7.79.04,4.72-3.05,7.83-8.23,7.93-6.12.12-12.25.03-18.38.03Z"/>
    <path class="cls-1" d="M194.9,211.83c-5.79,0-11.59.07-17.38-.02-5.33-.09-8.42-2.92-8.55-7.61-.14-4.89,3.06-8.09,8.54-8.13,11.92-.09,23.84-.1,35.76,0,5.21.05,8.3,3.14,8.31,7.86,0,4.71-3.08,7.76-8.29,7.86-6.12.12-12.25.03-18.38.03Z"/>
    <path class="cls-1" d="M125.29,212.83c-5.96,0-11.92.09-17.88-.03-5.14-.11-8.24-3.25-8.17-7.98.07-4.53,3.04-7.67,7.93-7.73,12.25-.13,24.5-.13,36.76,0,4.87.05,7.86,3.21,7.92,7.74.07,4.72-3.04,7.87-8.18,7.97-6.12.12-12.25.03-18.38.03Z"/>
  </g>
</svg>