<?xml version="1.0" encoding="UTF-8"?>
<svg id="Image_selected" xmlns="http://www.w3.org/2000/svg" viewBox="0 0 250.88 252.12">
  <defs>
    <style>
      .cls-1 {
        fill: #0c2534;
      }

      .cls-2 {
        fill: #f2fafe;
      }
    </style>
  </defs>
  <g>
    <path class="cls-2" d="M35.91,11.24h179.05c14.3,0,25.91,11.61,25.91,25.91v179.05c0,14.3-11.61,25.91-25.91,25.91H35.91c-14.3,0-25.91-11.61-25.91-25.91V37.15c0-14.3,11.61-25.91,25.91-25.91Z"/>
    <path class="cls-1" d="M214.97,21.24c8.77,0,15.91,7.14,15.91,15.91v179.05c0,8.77-7.14,15.91-15.91,15.91H35.91c-8.77,0-15.91-7.14-15.91-15.91V37.15c0-8.77,7.14-15.91,15.91-15.91h179.05M214.97,1.24H35.91C16.08,1.24,0,17.32,0,37.15v179.05C0,236.04,16.08,252.12,35.91,252.12h179.05c19.83,0,35.91-16.08,35.91-35.91V37.15c0-19.83-16.08-35.91-35.91-35.91h0Z"/>
  </g>
  <g>
    <path class="cls-1" d="M125.21,212.81c-17.75,0-35.5.02-53.24,0-19.89-.03-33.48-13.56-33.5-33.4-.04-34.5-.04-69,0-103.5.02-19.56,13.64-33.22,33.15-33.25,35.99-.05,71.99-.05,107.98,0,19.24.03,32.95,13.67,32.99,32.9.07,34.83.08,69.67,0,104.5-.04,18.95-13.73,32.64-32.64,32.74-18.25.09-36.49.02-54.74.02ZM56.24,149.66c.85.61,1.7,1.22,2.55,1.84,10.76-11.51,21.43-23.11,32.33-34.49,4.79-5,9.33-4.9,14.29-.21,9.64,9.11,19.27,18.23,28.76,27.49,2.06,2.01,3.51,2.27,5.85.48,5.66-4.33,11.51-8.42,17.32-12.55,5.64-4.01,8.21-3.68,13.9.15,7.46,5.03,15.22,9.6,23.58,14.82,0-24.57.03-47.95-.01-71.32-.02-9.81-5.63-15.41-15.46-15.42-35.83-.03-71.66-.03-107.48,0-10.1,0-15.61,5.58-15.62,15.76-.03,23.22,0,46.44,0,69.66,0,1.27,0,2.53,0,3.8ZM98.67,135.87c-13.2,12.93-25.96,25.71-39.07,38.12-3.81,3.6-4,7.26-2.52,11.58,2.04,5.95,7,9.44,13.74,9.45,36.47.04,72.95.09,109.42-.11,3.08-.02,6.54-1.32,9.15-3.04,4.83-3.2,7.81-17.45,5.16-22.51-.42-.81-1.39-1.4-2.22-1.91-8.33-5.11-16.62-10.31-25.1-15.14-1.41-.8-4.21-.69-5.58.21-6.5,4.28-12.7,9.02-19.04,13.53-6.24,4.44-9.77,3.73-15.09-1.71-9.37-9.58-19.06-18.85-28.84-28.46Z"/>
    <path class="cls-1" d="M182.72,94.01c-.07,13.86-11.6,25.25-25.46,25.17-13.86-.08-25.25-11.6-25.17-25.47.07-13.85,11.61-25.25,25.47-25.17,13.86.08,25.24,11.6,25.17,25.47ZM164.9,94.04c.1-4.13-3.32-7.66-7.45-7.69-3.94-.02-7.31,3.16-7.53,7.1-.23,4.13,3.06,7.76,7.19,7.92,4.12.16,7.69-3.2,7.79-7.34Z"/>
  </g>
</svg>