<?xml version="1.0" encoding="UTF-8"?>
<svg id="Italic_Selected" xmlns="http://www.w3.org/2000/svg" viewBox="0 0 250.88 252.12">
  <defs>
    <style>
      .cls-1 {
        fill: none;
        stroke: #0c2534;
        stroke-linecap: round;
        stroke-miterlimit: 10;
        stroke-width: 20px;
      }

      .cls-2 {
        fill: #0c2534;
      }

      .cls-3 {
        fill: #f2fafe;
      }
    </style>
  </defs>
  <g>
    <path class="cls-3" d="M35.91,11.24h179.05c14.3,0,25.91,11.61,25.91,25.91v179.05c0,14.3-11.61,25.91-25.91,25.91H35.91c-14.3,0-25.91-11.61-25.91-25.91V37.15c0-14.3,11.61-25.91,25.91-25.91Z"/>
    <path class="cls-2" d="M214.97,21.24c8.77,0,15.91,7.14,15.91,15.91v179.05c0,8.77-7.14,15.91-15.91,15.91H35.91c-8.77,0-15.91-7.14-15.91-15.91V37.15c0-8.77,7.14-15.91,15.91-15.91h179.05M214.97,1.24H35.91C16.08,1.24,0,17.32,0,37.15v179.05C0,236.04,16.08,252.12,35.91,252.12h179.05c19.83,0,35.91-16.08,35.91-35.91V37.15c0-19.83-16.08-35.91-35.91-35.91h0Z"/>
  </g>
  <line class="cls-1" x1="124.83" y1="43.92" x2="179.05" y2="43.92"/>
  <line class="cls-1" x1="71.83" y1="209.44" x2="124.83" y2="209.44"/>
  <line class="cls-1" x1="154.46" y1="43.92" x2="95.48" y2="209.44"/>
</svg>