<?xml version="1.0" encoding="UTF-8"?>
<svg id="Link_Selected" xmlns="http://www.w3.org/2000/svg" viewBox="0 0 250.88 252.12">
  <defs>
    <style>
      .cls-1 {
        fill: #0c2534;
      }

      .cls-2 {
        fill: #f2fafe;
      }
    </style>
  </defs>
  <g>
    <path class="cls-2" d="M35.91,11.24h179.05c14.3,0,25.91,11.61,25.91,25.91v179.05c0,14.3-11.61,25.91-25.91,25.91H35.91c-14.3,0-25.91-11.61-25.91-25.91V37.15c0-14.3,11.61-25.91,25.91-25.91Z"/>
    <path class="cls-1" d="M214.97,21.24c8.77,0,15.91,7.14,15.91,15.91v179.05c0,8.77-7.14,15.91-15.91,15.91H35.91c-8.77,0-15.91-7.14-15.91-15.91V37.15c0-8.77,7.14-15.91,15.91-15.91h179.05M214.97,1.24H35.91C16.08,1.24,0,17.32,0,37.15v179.05C0,236.04,16.08,252.12,35.91,252.12h179.05c19.83,0,35.91-16.08,35.91-35.91V37.15c0-19.83-16.08-35.91-35.91-35.91h0Z"/>
  </g>
  <g>
    <path class="cls-1" d="M199.36,76.99c-1.46,3.7-3,10.72-6.69,16.32-10.57,16.04-21.83,31.66-33.25,47.12-3.07,4.15-7.25,7.86-11.67,10.55-9.91,6.03-23.02,3.93-31.2-4.19-3.41-3.39-3.85-7.98-1.12-11.72,2.64-3.61,7.4-4.62,11.54-2.38,1.02.55,1.93,1.29,2.91,1.91,4.92,3.12,7.73,3.05,11.97-1.08,2.83-2.76,5.36-5.89,7.65-9.12,9.5-13.38,19.04-26.74,28.2-40.35,7.08-10.53,3.27-22.23-8.15-26.98-5.45-2.26-10.55-1.08-14.33,2.59-7.44,7.24-14.2,15.18-21.28,22.79-1.67,1.79-3.23,4.03-5.33,4.99-3.54,1.61-7.24.98-9.97-2.15-2.68-3.07-3.24-6.82-1.03-10.14,8.11-12.21,17-23.8,29.7-31.68,11.32-7.02,22.91-7.04,34.31-.13,11.39,6.9,17,17.26,17.77,33.66Z"/>
    <path class="cls-1" d="M51.52,179.6c2.58-6.52,4.16-13.71,7.93-19.45,10.57-16.06,21.8-31.7,33.32-47.11,3.36-4.5,8.08-8.46,13-11.21,9.53-5.35,22.32-2.8,29.83,4.9,3.35,3.43,3.69,8.07.88,11.75-2.73,3.57-7.47,4.46-11.6,2.17-9.67-5.36-12.04-5.22-18.49,3.59-11.06,15.12-21.91,30.42-32.35,45.98-6.8,10.14-2.77,21.63,8.2,26.18,5.47,2.27,10.52.98,14.33-2.67,7.14-6.85,13.94-14.12,20.27-21.72,5.53-6.66,9.89-8.71,14.79-5.33,4.98,3.44,4.96,8.53-.14,15.59-7.11,9.86-14.79,19.17-24.81,26.31-22.96,16.35-47.51-.52-52.27-18.64-.84-3.19-1.25-6.48-1.87-9.73-.34-.2-.69-.4-1.03-.6Z"/>
  </g>
</svg>