<?xml version="1.0" encoding="UTF-8"?>
<svg id="BulletList_Selected" xmlns="http://www.w3.org/2000/svg" viewBox="0 0 250.88 250.88">
  <defs>
    <style>
      .cls-1 {
        stroke-linecap: round;
        stroke-width: 20px;
      }

      .cls-1, .cls-2 {
        fill: none;
        stroke: #0c2534;
        stroke-miterlimit: 10;
      }

      .cls-3 {
        fill: #0c2534;
      }

      .cls-4 {
        fill: #f2fafe;
      }

      .cls-2 {
        stroke-width: 17px;
      }
    </style>
  </defs>
  <g>
    <path class="cls-4" d="M35.91,10h179.05c14.3,0,25.91,11.61,25.91,25.91v179.05c0,14.3-11.61,25.91-25.91,25.91H35.91c-14.3,0-25.91-11.61-25.91-25.91V35.91c0-14.3,11.61-25.91,25.91-25.91Z"/>
    <path class="cls-3" d="M214.97,20c8.77,0,15.91,7.14,15.91,15.91v179.05c0,8.77-7.14,15.91-15.91,15.91H35.91c-8.77,0-15.91-7.14-15.91-15.91V35.91c0-8.77,7.14-15.91,15.91-15.91h179.05M214.97,0H35.91C16.08,0,0,16.08,0,35.91v179.05C0,234.8,16.08,250.88,35.91,250.88h179.05c19.83,0,35.91-16.08,35.91-35.91V35.91C250.88,16.08,234.8,0,214.97,0h0Z"/>
  </g>
  <circle class="cls-2" cx="64.5" cy="69.69" r="14.23"/>
  <circle class="cls-2" cx="64.5" cy="125.44" r="14.23"/>
  <circle class="cls-2" cx="64.5" cy="181.19" r="14.23"/>
  <line class="cls-1" x1="121.23" y1="68.7" x2="200.62" y2="68.7"/>
  <line class="cls-1" x1="121.23" y1="124.95" x2="200.62" y2="124.95"/>
  <line class="cls-1" x1="121.23" y1="181.19" x2="200.62" y2="181.19"/>
</svg>