<?xml version="1.0" encoding="UTF-8"?>
<svg id="Modal_Selected" xmlns="http://www.w3.org/2000/svg" xmlns:xlink="http://www.w3.org/1999/xlink" viewBox="0 0 250.88 252.12">
  <defs>
    <style>
      .cls-1 {
        stroke-width: 7px;
      }

      .cls-1, .cls-2, .cls-3, .cls-4 {
        fill: none;
      }

      .cls-1, .cls-2, .cls-4, .cls-5, .cls-6 {
        stroke: #0c2534;
      }

      .cls-1, .cls-4 {
        stroke-linecap: round;
      }

      .cls-2, .cls-4 {
        stroke-width: 10px;
      }

      .cls-7, .cls-5, .cls-6 {
        fill: #0c2534;
      }

      .cls-5 {
        stroke-miterlimit: 10;
      }

      .cls-8 {
        fill: #f2fafe;
      }

      .cls-6 {
        stroke-width: 9px;
      }

      .cls-9 {
        clip-path: url(#clippath);
      }
    </style>
    <clipPath id="clippath">
      <polygon class="cls-3" points="77.36 220.35 25.59 220.35 25.59 62.09 81.8 62.09 81.8 173.02 191.24 173.02 191.24 220.35 77.36 220.35"/>
    </clipPath>
  </defs>
  <g>
    <path class="cls-8" d="M35.91,11.24h179.05c14.3,0,25.91,11.61,25.91,25.91v179.05c0,14.3-11.61,25.91-25.91,25.91H35.91c-14.3,0-25.91-11.61-25.91-25.91V37.15c0-14.3,11.61-25.91,25.91-25.91Z"/>
    <path class="cls-7" d="M214.97,21.24c8.77,0,15.91,7.14,15.91,15.91v179.05c0,8.77-7.14,15.91-15.91,15.91H35.91c-8.77,0-15.91-7.14-15.91-15.91V37.15c0-8.77,7.14-15.91,15.91-15.91h179.05M214.97,1.24H35.91C16.08,1.24,0,17.32,0,37.15v179.05C0,236.04,16.08,252.12,35.91,252.12h179.05c19.83,0,35.91-16.08,35.91-35.91V37.15c0-19.83-16.08-35.91-35.91-35.91h0Z"/>
  </g>
  <g id="ModalIcon">
    <g id="BaseWindow">
      <g class="cls-9">
        <g id="Mask_Group_24" data-name="Mask Group 24">
          <path id="Path_387" data-name="Path 387" class="cls-5" d="M156.03,210.38h-87.96c-14.69-.02-26.59-11.92-26.61-26.61v-87.96c.02-14.69,11.92-26.59,26.61-26.61h87.96c14.69.02,26.59,11.92,26.61,26.61v87.94c-.02,14.69-11.92,26.59-26.61,26.61h0ZM68.07,81.04c-8.16,0-14.77,6.62-14.78,14.78v87.94c0,8.16,6.62,14.77,14.78,14.78h87.96c8.16,0,14.77-6.62,14.78-14.78v-87.94c0-8.16-6.62-14.77-14.78-14.78h-87.96Z"/>
          <line id="Line_311" data-name="Line 311" class="cls-6" x1="51.48" y1="107.2" x2="81.06" y2="107.2"/>
        </g>
      </g>
    </g>
    <g id="PopupWindow">
      <path id="Path_387-2" data-name="Path 387-2" class="cls-7" d="M190.9,164.65h-75.41c-12.59-.01-22.8-10.22-22.81-22.81v-75.41c.01-12.59,10.22-22.8,22.81-22.81h75.42c12.59.01,22.8,10.22,22.81,22.81v75.4c-.01,12.59-10.22,22.8-22.81,22.81h0ZM115.49,53.75c-6.99,0-12.66,5.67-12.67,12.67v75.4c0,6.99,5.67,12.66,12.67,12.67h75.42c6.99,0,12.66-5.67,12.67-12.67v-75.4c0-6.99-5.67-12.66-12.67-12.67h-75.42Z"/>
    </g>
    <g id="Group_328" data-name="Group 328">
      <line id="Line_312" data-name="Line 312" class="cls-4" x1="67.75" y1="31.77" x2="67.75" y2="55.44"/>
      <line id="Line_313" data-name="Line 313" class="cls-4" x1="79.58" y1="43.6" x2="55.91" y2="43.6"/>
    </g>
    <path id="Path_707" data-name="Path 707" class="cls-2" d="M102.49,77.5h103.02"/>
    <path id="Path_705" data-name="Path 705" class="cls-1" d="M191.25,62.73h-1.21"/>
    <path id="Path_706" data-name="Path 706" class="cls-1" d="M176.78,62.73h-1.93"/>
  </g>
</svg>