<?xml version="1.0" encoding="UTF-8"?>
<svg id="NumberedList_Idle" xmlns="http://www.w3.org/2000/svg" viewBox="0 0 250.88 252.12">
  <defs>
    <style>
      .cls-1 {
        fill: #0c2534;
      }

      .cls-2 {
        fill: #f2fafe;
      }
    </style>
  </defs>
  <rect class="cls-2" x=".1" y="1.24" width="250.88" height="250.88" rx="35.91" ry="35.91"/>
  <g>
    <path class="cls-1" d="M155.2,51.19c13.27,0,26.54-.02,39.81,0,6.77.02,9.74,2.66,9.69,8.49-.04,5.72-3.05,8.28-9.9,8.28-26.54.02-53.07.02-79.61,0-6.87,0-9.88-2.53-9.94-8.24-.06-5.99,2.91-8.52,10.14-8.53,13.27-.02,26.54,0,39.81,0Z"/>
    <path class="cls-1" d="M154.91,134.7c-13.44,0-26.87.03-40.31-.01-6.39-.02-9.32-2.69-9.35-8.31-.03-5.67,2.9-8.44,9.22-8.45,27.04-.04,54.08-.04,81.12,0,6.27,0,9.18,2.85,9.1,8.57-.07,5.41-2.98,8.15-8.98,8.18-13.6.06-27.21.02-40.81.02Z"/>
    <path class="cls-1" d="M155.11,177.68c13.27,0,26.54-.02,39.81,0,6.79.01,9.78,2.62,9.77,8.4,0,5.77-3,8.36-9.8,8.37-26.71.02-53.41.02-80.12,0-6.47,0-9.43-2.6-9.52-8.15-.1-5.87,2.87-8.6,9.55-8.62,13.44-.04,26.87-.01,40.31-.01Z"/>
    <path class="cls-1" d="M87.55,172.3c-3.03,5.7-.33,11.94,1.83,18.71,3.27,10.28-2.63,20.2-12.41,23.29-10.29,3.26-21.42-1.21-25.31-10.16-2.1-4.84-.92-9.32,2.94-11.18,3.75-1.8,7.08-.03,10.31,4.21,1.31,1.72,4.2,2.77,6.47,2.99,1.2.11,3.3-2.02,3.8-3.53.79-2.39-.24-4.16-3.26-4.94-7.27-1.89-8.57-8.06-3.25-13.42,1.57-1.58,2.9-3.58,3.75-5.62.4-.95-.6-2.48-.97-3.75-1.25.44-2.6.71-3.73,1.36-2.19,1.26-4.11,3.54-6.41,3.96-4.13.75-8.08-3.51-7.35-7.93.46-2.78,1.79-5.78,3.63-7.89,4.23-4.85,13.02-5.91,19.93-3.03,6.7,2.79,10.19,8.22,10.02,16.94Z"/>
    <path class="cls-1" d="M78.93,130.68c1.43.08,2.89.05,4.31.26,4.4.67,6.75,3.29,6.89,7.73.13,4.2-2.54,7.69-6.71,7.83-8.94.29-17.92.44-26.83-.13-2.09-.13-4.86-2.98-5.76-5.21-1.37-3.37,0-6.68,3.1-9.19,4.37-3.54,8.61-7.25,12.68-11.12,1.89-1.79,3.51-4,4.72-6.31.57-1.1-.11-2.85-.23-4.31-1.7.58-3.61.86-5.02,1.86-.91.64-.98,2.38-1.57,3.56-1.82,3.64-4.91,5-8.69,3.91-3.8-1.1-5.81-4.08-5.17-7.99,1.21-7.41,5.33-12.86,12.5-15.41,7.15-2.55,13.9-1.14,19.4,4.01,5.5,5.16,5.77,11.83,3.15,18.4-1.68,4.2-4.4,7.98-6.76,12.13Z"/>
    <path class="cls-1" d="M78.2,72.14c2.31,0,4.11-.15,5.87.03,4.38.45,7.2,3.76,7.06,8.11-.13,4.14-2.9,7.42-7.1,7.52-8.79.21-17.58.22-26.37,0-4.45-.11-7.32-3.55-7.17-7.92.15-4.46,2.56-7.03,6.94-7.7,1.45-.22,2.93-.16,4.71-.24.1-1.59.24-3.03.26-4.48.01-1.25-.12-2.5-.21-4.2-1.77,1.16-3.02,2.2-4.45,2.88-3.93,1.87-7.13.48-9.63-2.7-2.38-3.03-2.29-6.29.37-9.03,5.31-5.47,10.56-11.07,16.42-15.91,1.98-1.64,6.25-2.28,8.54-1.26,2.22.99,4.41,4.61,4.57,7.2.55,9.05.21,18.15.21,27.69Z"/>
  </g>
</svg>