<?xml version="1.0" encoding="UTF-8"?>
<svg id="Quote_selected" xmlns="http://www.w3.org/2000/svg" viewBox="0 0 250.88 252.12">
  <defs>
    <style>
      .cls-1 {
        fill: #0c2534;
      }

      .cls-2 {
        fill: #f2fafe;
      }
    </style>
  </defs>
  <g>
    <rect class="cls-2" x="10" y="11.24" width="230.88" height="230.88" rx="25.91" ry="25.91"/>
    <path class="cls-1" d="M214.97,21.24c8.77,0,15.91,7.14,15.91,15.91v179.05c0,8.77-7.14,15.91-15.91,15.91H35.91c-8.77,0-15.91-7.14-15.91-15.91V37.15c0-8.77,7.14-15.91,15.91-15.91h179.05M214.97,1.24H35.91C16.08,1.24,0,17.32,0,37.15v179.05C0,236.04,16.08,252.12,35.91,252.12h179.05c19.83,0,35.91-16.08,35.91-35.91V37.15c0-19.83-16.08-35.91-35.91-35.91h0Z"/>
  </g>
  <g>
    <path class="cls-1" d="M83.52,139.48c5.21,6.37,9.99,12.21,14.76,18.07,2.72,3.34,5.57,6.6,8.06,10.11,3.24,4.57,2.46,10.04-1.6,13.37-4.22,3.46-10.19,3.2-13.8-1.25-12.64-15.57-25.51-30.99-37.42-47.12-8.1-10.97-10.71-23.84-7.13-37.34,4.12-15.53,18.72-25.74,35.71-25.36,15.68.34,29.71,12.29,33.47,28.47,4.23,18.23-7.5,35.28-27.5,39.98-1.24.29-2.47.58-4.55,1.06ZM64.82,105.16c-.22,8.22,5.81,14.38,14.24,14.55,8.72.17,17.48-6.52,17.64-13.48.18-8-7.21-16.17-14.91-16.47-9.74-.39-16.71,5.94-16.97,15.41Z"/>
    <path class="cls-1" d="M173.09,140.38c6.79,8.33,13.05,16.02,19.31,23.71,1.25,1.54,2.59,3.04,3.69,4.69,3.08,4.62,2.28,10.06-1.86,13.35-4.13,3.28-9.97,3.14-13.44-1.13-12.95-15.96-26.15-31.76-38.26-48.35-7.81-10.7-10.04-23.4-6.45-36.51,4.25-15.53,18.86-25.63,35.86-25.15,15.48.43,29.37,12.23,33.21,28.2,4.42,18.39-7.49,35.71-27.69,40.27-1.11.25-2.22.47-4.37.93ZM154.46,106.29c-.17,8.2,5.93,14.32,14.37,14.41,8.78.09,17.44-6.64,17.51-13.61.08-8.04-7.33-16.1-15.05-16.35-9.73-.31-16.64,6.07-16.84,15.54Z"/>
  </g>
</svg>