<?xml version="1.0" encoding="UTF-8"?>
<svg id="Subheading_Selected" xmlns="http://www.w3.org/2000/svg" viewBox="0 0 250.88 252.12">
  <defs>
    <style>
      .cls-1 {
        fill: #0c2534;
      }

      .cls-2 {
        fill: #f2fafe;
      }
    </style>
  </defs>
  <g>
    <path class="cls-2" d="M35.91,11.24h179.05c14.3,0,25.91,11.61,25.91,25.91v179.05c0,14.3-11.61,25.91-25.91,25.91H35.91c-14.3,0-25.91-11.61-25.91-25.91V37.15c0-14.3,11.61-25.91,25.91-25.91Z"/>
    <path class="cls-1" d="M214.97,21.24c8.77,0,15.91,7.14,15.91,15.91v179.05c0,8.77-7.14,15.91-15.91,15.91H35.91c-8.77,0-15.91-7.14-15.91-15.91V37.15c0-8.77,7.14-15.91,15.91-15.91h179.05M214.97,1.24H35.91C16.08,1.24,0,17.32,0,37.15v179.05C0,236.04,16.08,252.12,35.91,252.12h179.05c19.83,0,35.91-16.08,35.91-35.91V37.15c0-19.83-16.08-35.91-35.91-35.91h0Z"/>
  </g>
  <g>
    <path class="cls-1" d="M159.04,70.78c-16.92,0-33.84.02-50.77,0-6.72-.01-9.71-2.7-9.64-8.53.06-5.57,3.04-8.23,9.44-8.24,34.18-.02,68.35-.02,102.53,0,6.37,0,9.34,2.7,9.39,8.29.05,5.83-2.92,8.47-9.68,8.48-17.09.03-34.18,0-51.26,0Z"/>
    <path class="cls-1" d="M66.82,96.19c-1.64-.83-3.61-1.33-4.85-2.57-3.97-3.97-3.83-7.79.04-11.68,3.9-3.92,7.81-4.2,11.76-.4,6.82,6.56,13.53,13.23,20.13,20.01,3.66,3.76,3.5,7.64-.29,11.34-6.41,6.25-12.9,12.41-19.4,18.57-4.31,4.09-8.09,4.07-12.13.06-4.04-4.02-4.01-7.7.1-12.1.9-.96,1.81-1.92,3.75-3.97-3.05,0-5.04,0-7.03,0-7.14.04-14.27.13-21.41.13-6.48,0-9.48-2.59-9.57-8.1-.1-5.75,2.94-8.55,9.66-8.61,9.11-.08,18.21-.02,27.32-.02.64-.89,1.28-1.78,1.92-2.67Z"/>
    <path class="cls-1" d="M158.01,110.62c-9.79,0-19.57.04-29.36-.02-6.24-.04-9.19-2.89-9.11-8.56.08-5.4,3.01-8.17,8.98-8.19,19.9-.05,39.8-.05,59.71,0,5.93.02,8.82,2.85,8.85,8.3.03,5.49-2.85,8.39-8.72,8.44-10.12.08-20.23.02-30.35.02Z"/>
    <path class="cls-1" d="M195.35,145.47c-6.13,0-12.26.07-18.39-.02-5.53-.08-8.71-3.14-8.6-8.05.1-4.71,3.17-7.65,8.48-7.68,12.59-.09,25.18-.09,37.77,0,5.25.04,8.31,3.07,8.35,7.81.04,4.73-3.03,7.81-8.23,7.91-6.46.12-12.92.03-19.38.03Z"/>
    <path class="cls-1" d="M122.29,130.69c6.13,0,12.26-.08,18.39.02,5.52.09,8.69,3.16,8.59,8.08-.1,4.7-3.19,7.62-8.5,7.65-12.59.08-25.18.09-37.77,0-5.24-.04-8.31-3.08-8.34-7.81-.03-4.73,3.04-7.81,8.25-7.91,6.46-.13,12.92-.03,19.38-.03Z"/>
    <path class="cls-1" d="M195.36,175.35c-6.13,0-12.26.07-18.39-.02-5.54-.08-8.72-3.14-8.62-8.05.1-4.71,3.18-7.65,8.47-7.69,12.59-.08,25.18-.09,37.77,0,5.25.04,8.34,3.07,8.37,7.78.03,4.75-3.03,7.83-8.22,7.94-6.46.13-12.92.03-19.38.03Z"/>
    <path class="cls-1" d="M121.69,176.35c-6.13,0-12.26.07-18.39-.02-5.56-.08-8.73-3.11-8.65-8.02.08-4.71,3.16-7.68,8.44-7.72,12.59-.09,25.18-.09,37.77,0,5.26.04,8.35,3.04,8.4,7.75.05,4.91-3.11,7.91-8.68,7.98-6.29.09-12.59.02-18.88.02Z"/>
    <path class="cls-1" d="M195.3,206.23c-6.13,0-12.26.08-18.39-.02-5.5-.09-8.69-3.2-8.55-8.11.13-4.69,3.22-7.59,8.54-7.63,12.59-.08,25.18-.09,37.77,0,5.22.04,8.3,3.12,8.3,7.85,0,4.73-3.07,7.77-8.29,7.87-6.46.12-12.92.03-19.38.03Z"/>
    <path class="cls-1" d="M122.29,207.23c-6.29,0-12.59.06-18.88-.02-5.6-.07-8.78-3.02-8.75-7.92.02-4.88,3.2-7.8,8.83-7.83,12.42-.06,24.85-.07,37.27,0,5.31.04,8.39,2.95,8.5,7.66.12,4.91-3.07,7.99-8.58,8.08-6.13.09-12.26.02-18.39.02Z"/>
  </g>
</svg>