<?xml version="1.0" encoding="UTF-8"?>
<svg id="Underline_Pressed" xmlns="http://www.w3.org/2000/svg" viewBox="0 0 250.88 252.12">
  <defs>
    <style>
      .cls-1 {
        fill: #0c2534;
      }

      .cls-2 {
        fill: #f2fafe;
      }
    </style>
  </defs>
  <rect class="cls-1" x="0" y="1.24" width="250.88" height="250.88" rx="35.91" ry="35.91"/>
  <g>
    <path class="cls-2" d="M110.79,139.49c-1.47-3.65-2.94-7.27-4.69-11.62-9.77,0-20.18-.11-30.58.16-1.18.03-2.56,2.05-3.41,3.41-1.29,2.06-2.19,4.36-3.06,6.15,2.88,1.68,6.07,2.58,7.57,4.69,1.44,2.03,1.85,5.43,1.39,8-.56,3.12-3.2,4.61-6.75,4.53-8.13-.19-16.26-.05-24.39-.06-4.19,0-7.22-2.95-7.51-7.23-.23-3.44,3.05-8.47,6.37-8.23,5.42.38,6.88-2.18,8.64-6.76,4.34-11.35,9.77-22.27,14.53-33.46,4.68-11,9.11-22.12,13.61-33.2,1.39-3.42,3.75-5.62,7.48-5.47,3.67.15,6.56,1.74,8.05,5.55,4.65,11.91,9.44,23.76,14.23,35.61,2.4,5.93,4.93,11.81,7.4,17.71,2.35,5.62,4.49,11.35,7.17,16.81.82,1.68,2.97,3.32,4.81,3.76,4.77,1.15,8.37,4.54,8.1,8.57-.3,4.53-3.37,7.2-8.85,7.31-6.3.13-12.61.04-18.92.03-7.17-.01-9.5-1.33-9.89-5.55-.62-6.74,1.28-9.09,8.7-10.69ZM99.62,111.88c-3.09-7.59-6.04-14.84-9.47-23.27-3.65,8.48-6.78,15.75-10.02,23.27h19.49Z"/>
    <path class="cls-2" d="M189.74,91.46c2.88-1.94,6.18-4.71,11.05-2.32,2.82,1.38,3.83,3.02,3.8,6.09-.13,14.27-.06,28.55-.06,42.82,0,1.79,0,3.58,0,5.88,2.58,0,4.68-.01,6.79,0,4.55.03,7.88,2.82,8.12,6.78.19,3.25-3.4,7.64-6.98,7.89-6.12.43-12.2.67-17.69-3.3-1.32-.96-4.46-.74-6.03.17-17.3,10.05-35.88,1.76-42.84-16.1-5.71-14.66-3.84-29.41,6.37-41.93,5.97-7.32,14.62-9.95,23.97-9.02,4.37.43,8.63,1.9,13.52,3.03ZM188.74,121.77c0-2.65.26-5.33-.09-7.93-.24-1.83-.8-4.13-2.08-5.22-6.5-5.51-14.12-8.6-21.81-2.22-2.99,2.49-4.6,7.09-5.95,11.03-3.01,8.8.22,18.89,7.35,24.82,3.49,2.9,13.55,2.05,16.91-.87,6.23-5.41,5.9-12.47,5.66-19.61Z"/>
    <path class="cls-2" d="M131.39,173.81c27.22,0,54.43-.08,81.65.12,2.68.02,6.02,1.02,7.83,2.8,1.61,1.58,2.56,5.22,1.88,7.34-.7,2.18-3.53,3.94-5.79,5.27-1.25.74-3.24.26-4.9.26-53.77,0-107.53,0-161.3,0-1.66,0-3.36.14-4.96-.18-4.14-.81-6.34-3.5-6.36-7.69-.02-4.22,2.54-6.66,6.36-7.71,1.55-.43,3.3-.2,4.95-.2,26.88,0,53.77,0,80.65,0Z"/>
  </g>
</svg>