<?xml version="1.0" standalone="no"?>
<!DOCTYPE svg PUBLIC "-//W3C//DTD SVG 20010904//EN"
 "http://www.w3.org/TR/2001/REC-SVG-20010904/DTD/svg10.dtd">
<svg version="1.0" xmlns="http://www.w3.org/2000/svg"
 width="225.000000pt" height="225.000000pt" viewBox="0 0 225.000000 225.000000"
 preserveAspectRatio="xMidYMid meet">

<g transform="translate(0.000000,225.000000) scale(0.100000,-0.100000)"
fill="#151515" stroke="none">
<path d="M1180 1518 c0 -11 -7 -18 -18 -18 -15 0 -18 -6 -14 -31 4 -24 0 -31
-17 -36 -16 -4 -21 -13 -21 -39 0 -24 -5 -34 -15 -34 -10 0 -15 -10 -15 -31 0
-22 -5 -32 -20 -36 -14 -4 -20 -14 -20 -34 0 -19 -5 -29 -15 -29 -10 0 -15
-11 -15 -35 0 -28 -4 -35 -20 -35 -16 0 -20 -7 -20 -35 0 -24 -5 -35 -15 -35
-10 0 -15 -11 -15 -35 0 -28 -4 -35 -20 -35 -11 0 -20 -7 -20 -15 0 -11 12
-15 50 -15 38 0 50 4 50 15 0 11 11 15 40 15 l40 0 0 -85 c0 -78 -2 -85 -20
-85 -18 0 -20 -7 -20 -70 0 -56 3 -70 15 -70 8 0 15 9 15 20 0 13 7 20 20 20
16 0 20 7 20 35 0 24 5 35 15 35 10 0 15 11 15 35 0 24 5 35 15 35 10 0 15 10
15 31 0 22 5 32 20 36 14 4 20 14 20 34 0 19 5 29 15 29 10 0 15 11 15 35 0
28 4 35 20 35 16 0 20 7 20 35 0 24 5 35 15 35 10 0 15 11 15 35 0 28 4 35 20
35 11 0 20 7 20 15 0 11 -12 15 -50 15 -38 0 -50 -4 -50 -15 0 -11 -11 -15
-40 -15 l-40 0 0 66 c0 57 3 67 20 71 18 5 20 14 20 87 0 67 -3 83 -15 83 -8
0 -15 -9 -15 -19z"/>
</g>
</svg>
